<?xml version="1.0" encoding="utf-8"?>
<!-- Generator: Adobe Illustrator 16.0.0, SVG Export Plug-In . SVG Version: 6.00 Build 0)  -->
<!DOCTYPE svg PUBLIC "-//W3C//DTD SVG 1.1//EN" "http://www.w3.org/Graphics/SVG/1.1/DTD/svg11.dtd">
<svg version="1.1" id="Layer_1" xmlns="http://www.w3.org/2000/svg" xmlns:xlink="http://www.w3.org/1999/xlink" x="0px" y="0px"
	 width="500px" height="500px" viewBox="0 0 500 500" enable-background="new 0 0 500 500" xml:space="preserve">
<g>
	<g>
		<polygon points="247.441,113.683 205.14,192.96 178.536,175.416 157.686,83.919 		"/>
		<polygon points="276.001,205.249 276.035,205.215 250,175.239 223.964,205.215 208.194,194.774 250,116.453 291.805,194.774 		"/>
		<polygon points="246.625,5.777 202.69,95.143 158.787,80.58 		"/>
		<polygon points="249.965,6.986 291.342,97.132 250,110.842 206.099,96.279 		"/>
		<polygon points="341.211,80.58 294.753,95.995 253.232,5.601 		"/>
		<polygon points="342.313,83.919 321.465,175.416 294.86,192.96 252.558,113.683 		"/>
	</g>
	<g>
		<g>
			<polygon points="257.978,305.415 308.155,328.791 298.929,436.683 270.86,494.398 306.671,436.683 329.467,312.366 			"/>
			<polygon points="412.048,436.683 384.722,367.626 332.573,303.042 257.978,299.343 342.343,279.294 394.024,362.188 			"/>
			<polygon points="334.351,443.785 366.408,367.384 371.645,257.311 257.978,292.385 399.617,216.021 375.017,368.06 			"/>
		</g>
		<g>
			<polygon points="242.022,305.415 191.845,328.791 201.078,436.683 229.147,494.398 193.337,436.683 170.533,312.366 			"/>
			<polygon points="87.953,436.683 115.285,367.626 167.425,303.042 242.022,299.343 157.658,279.294 105.975,362.188 			"/>
			<polygon points="165.649,443.785 133.599,367.384 128.355,257.311 242.022,292.385 100.384,216.021 124.983,368.06 			"/>
		</g>
	</g>
	<g>
		<polygon points="271.772,205.749 269.927,209.301 264.492,219.743 260.726,215.41 250,203.084 239.31,215.41 235.507,219.743 
			230.074,209.267 228.227,205.749 250,180.671 		"/>
		<polygon points="271.772,233.595 265.558,245.531 258.987,237.962 257.742,236.544 256.5,235.086 250,227.629 243.5,235.086 
			242.256,236.544 241.014,237.962 234.443,245.531 228.227,233.595 234.798,226.03 236.041,224.573 237.284,223.152 
			242.292,217.362 250,208.482 257.742,217.4 262.716,223.152 263.957,224.573 265.204,226.03 		"/>
		<polygon points="271.772,258.139 250,299.908 228.227,258.139 233.732,251.815 234.976,250.36 236.219,248.941 242.79,241.338 
			244.031,239.918 245.275,238.462 250,233.026 254.724,238.462 255.967,239.918 257.211,241.338 263.781,248.941 265.025,250.36 
			266.268,251.815 		"/>
	</g>
</g>
</svg>
